# xmcd
#
# Track frame offsets:
#	150
#	13656
#	24695
#	36384
#	48545
#	66470
#	79191
#	90553
#	101350
#	115911
#	126554
#	136713
#
# Disc length: 1994 seconds
#
# Revision: 1
# Processed by: cddbd v1.5.2PL0 Copyright (c) Steve Scherf et al.
# Submitted via: audiograbber 1.83.01
#
DISCID=a407c80c
DTITLE=Roy Orbison - Presenting Roy Orbison
DYEAR=2007
DGENRE=Pop/Funk
TTITLE0=Oh, Pretty Woman
TTITLE1=Only The Lonely (Know The Way I Feel) 
TTITLE2=Claudette 
TTITLE3=Leah 
TTITLE4=California Blue
TTITLE5=It's Over
TTITLE6=Blue Bayou
TTITLE7=Falling 
TTITLE8=Heartache 
TTITLE9=Blue Avenue 
TTITLE10=Running Scared 
TTITLE11=In Dreams 
EXTD=
EXTT0=
EXTT1=
EXTT2=
EXTT3=
EXTT4=
EXTT5=
EXTT6=
EXTT7=
EXTT8=
EXTT9=
EXTT10=
EXTT11=
PLAYORDER=
